<?xml version="1.0" encoding="UTF-8" standalone="no"?>
<!-- Created with Inkscape (http://www.inkscape.org/) -->

<svg
   width="26.464834"
   height="29.082027"
   viewBox="0 0 7.0021539 7.6946201"
   version="1.1"
   id="svg5"
   inkscape:version="1.1.2 (0a00cf5339, 2022-02-04)"
   sodipodi:docname="icon.svg"
   xmlns:inkscape="http://www.inkscape.org/namespaces/inkscape"
   xmlns:sodipodi="http://sodipodi.sourceforge.net/DTD/sodipodi-0.dtd"
   xmlns="http://www.w3.org/2000/svg"
   xmlns:svg="http://www.w3.org/2000/svg">
  <sodipodi:namedview
     id="namedview7"
     pagecolor="#505050"
     bordercolor="#eeeeee"
     borderopacity="1"
     inkscape:pageshadow="0"
     inkscape:pageopacity="0"
     inkscape:pagecheckerboard="0"
     inkscape:document-units="px"
     showgrid="false"
     units="px"
     width="128px"
     inkscape:zoom="5.9993591"
     inkscape:cx="-9.7510416"
     inkscape:cy="17.418527"
     inkscape:window-width="1366"
     inkscape:window-height="732"
     inkscape:window-x="0"
     inkscape:window-y="0"
     inkscape:window-maximized="1"
     inkscape:current-layer="layer1" />
  <defs
     id="defs2" />
  <g
     inkscape:label="Layer 1"
     inkscape:groupmode="layer"
     id="layer1"
     transform="translate(-9.970746,-6.817883)">
    <path
       style="font-style:normal;font-variant:normal;font-weight:normal;font-stretch:normal;font-size:10.5833px;line-height:1.25;font-family:'Tiresias Signfont';-inkscape-font-specification:'Tiresias Signfont';letter-spacing:0px;word-spacing:0px;fill:#ffffff;fill-opacity:1;stroke:none;stroke-width:0.264583"
       d="m 12.304966,6.817883 c 0,0 -0.89239,0.3534 -1.37511,1.92495 -0.30435,0.99088 -0.95911,5.76967 -0.95911,5.76967 h 2.33422 c 0,0 -0.68807,-1.92411 0,-2.95847 0.35179,-0.52885 0.75057,-0.81281 1.16686,-0.81287 0.39791,-6e-5 0.81269,0.25926 1.16685,0.81287 0.724684,1.13279 0,2.95847 0,2.95847 H 16.9729 c 0,0 -0.59799,-4.78361 -0.8971,-5.76967 -0.47891,-1.57881 -1.437124,-1.92495 -1.437124,-1.92495 z m 1.16686,1.17978 c 0.41515,0 0.76533,0.35135 0.76533,0.78496 0,0.4336 -0.35018,0.78548 -0.76533,0.78548 -0.41515,0 -0.73794,-0.35188 -0.73794,-0.78548 0,-0.4336 0.32279,-0.78496 0.73794,-0.78496 z"
       id="path4812-3"
       inkscape:connector-curvature="0" />
  </g>
</svg>
